<?xml version="1.0" standalone="no"?>
<!DOCTYPE svg PUBLIC "-//W3C//DTD SVG 20010904//EN"
 "http://www.w3.org/TR/2001/REC-SVG-20010904/DTD/svg10.dtd">
<svg version="1.0" xmlns="http://www.w3.org/2000/svg"
 width="660.000000pt" height="260.000000pt" viewBox="0 0 660.000000 260.000000"
 preserveAspectRatio="xMidYMid meet">
<metadata>
Created by potrace 1.15, written by Peter Selinger 2001-2017
</metadata>
<g transform="translate(0.000000,260.000000) scale(0.100000,-0.100000)"
fill="#000000" stroke="none">
<path d="M3290 1967 c-17 -13 -224 -237 -278 -300 -38 -45 -40 -76 -8 -114
l24 -28 289 -3 c158 -1 296 -2 306 -2 15 0 17 -15 17 -170 l0 -170 -220 0
-221 0 3 103 3 102 80 0 80 0 3 -82 c3 -74 5 -83 22 -83 25 0 34 33 28 112 -4
51 -9 65 -32 85 -24 20 -38 23 -107 23 -72 0 -82 -3 -104 -25 -23 -23 -25 -31
-25 -130 l0 -105 -138 0 c-94 0 -142 4 -150 12 -8 8 -12 62 -12 178 l0 165 80
90 80 90 0 73 0 72 30 0 c25 0 30 -4 30 -25 0 -24 24 -44 37 -32 9 9 14 69 7
89 -4 15 -17 18 -74 18 -45 0 -69 -4 -73 -12 -2 -7 -5 -49 -6 -92 l-2 -79 -74
-83 c-88 -99 -89 -105 -81 -320 5 -144 6 -150 31 -171 25 -22 35 -23 171 -23
115 0 144 -3 144 -14 0 -7 9 -25 21 -40 l20 -26 229 0 229 0 20 26 c12 15 21
33 21 40 0 8 11 14 25 14 14 0 37 11 50 25 25 24 25 26 25 215 l0 192 -78 76
c-327 322 -348 342 -378 342 -16 0 -36 -6 -44 -13z m253 -228 l197 -191 -2
-182 c-3 -179 -3 -181 -25 -184 l-23 -3 0 171 c0 168 0 171 -25 195 l-24 25
-290 0 c-159 0 -296 3 -305 6 -9 3 -16 15 -16 25 0 23 279 328 300 329 8 0
104 -86 213 -191z m97 -623 c0 -23 -24 -26 -220 -26 -196 0 -220 3 -220 26 0
12 39 14 220 14 181 0 220 -2 220 -14z">
</g>
</svg>
